# xmcd
#
# Track frame offsets:
#	150
#	13092
#	30390
#	44765
#	62550
#	77847
#	93084
#	106714
#	123806
#	138220
#	151021
#	164322
#	180417
#	195751
#	210292
#	225141
#	239212
#	256007
#	272039
#
# Disc length: 3879 seconds
#
# Revision: 0
# Processed by: cddbd v1.5.2PL0 Copyright (c) Steve Scherf et al.
# Submitted via: audiograbber 1.83.01
#
DISCID=da0f2513
DTITLE=Various Artist - Promo Only Country Radio April 2008
DYEAR=2008
DGENRE=Country
TTITLE0=Taylor Swift - Picture To Burn (Album Version)
TTITLE1=Rascal Flatts - Every Day
TTITLE2=Lost Trailers - Holler Back
TTITLE3=Brad Paisley - I'm Still A Guy
TTITLE4=Clint Black - Long Cool Woman
TTITLE5=George Strait - I Saw God Today
TTITLE6=Emily West - Rocks In Your Shoes
TTITLE7=Blake Shelton - Home
TTITLE8=Julianne Hough - That Song In My Head
TTITLE9=Jo Dee Messina - I'm Done
TTITLE10=Steve Earle With Allison Moorer - Days Aren't Long Enough
TTITLE11=LeAnn Rimes - Good Friends And A Glass Of Wine
TTITLE12=Carter's Chord - Young Love
TTITLE13=Levi Webb - Two Hearts
TTITLE14=Jennifer Hanson - '73
TTITLE15=Brittany Clarke - Start Talkin' Love
TTITLE16=Mica Roberts f. Toby Keith - Things A Mama Don't Know
TTITLE17=Crystal Shawanda - You Can Let Go
TTITLE18=Kelly Weaver - I Can't Let Go
EXTD=
EXTT0=
EXTT1=
EXTT2=
EXTT3=
EXTT4=
EXTT5=
EXTT6=
EXTT7=
EXTT8=
EXTT9=
EXTT10=
EXTT11=
EXTT12=
EXTT13=
EXTT14=
EXTT15=
EXTT16=
EXTT17=
EXTT18=
PLAYORDER=
